<svg xmlns="http://www.w3.org/2000/svg" id="relative-error-1pct-figure" viewBox="0 0 436 336">
  <defs>
    <clipPath id="relative-error-1pct-__clipPath-0">
      <rect x="8.0" y="8.0" width="420.0" height="320.0"/>
    </clipPath>
    <clipPath id="relative-error-1pct-__clipPath-1">
      <rect x="8.0" y="8.0" width="420.0" height="320.0"/>
    </clipPath>
  </defs>
  <g id="relative-error-1pct-grid-axes">
    <g id="relative-error-1pct-grid" stroke="#ccc" stroke-width="1">
      <line x1="36.0" y1="328.0" x2="36.0" y2="8.0"/>
      <line x1="82.7" y1="328.0" x2="82.7" y2="8.0"/>
      <line x1="129.3" y1="328.0" x2="129.3" y2="8.0"/>
      <line x1="176.0" y1="328.0" x2="176.0" y2="8.0"/>
      <line x1="222.7" y1="328.0" x2="222.7" y2="8.0"/>
      <line x1="269.3" y1="328.0" x2="269.3" y2="8.0"/>
      <line x1="316.0" y1="328.0" x2="316.0" y2="8.0"/>
      <line x1="362.7" y1="328.0" x2="362.7" y2="8.0"/>
      <line x1="409.3" y1="328.0" x2="409.3" y2="8.0"/>
      <line x1="8.0" y1="299.8" x2="428.0" y2="299.8"/>
      <line x1="8.0" y1="252.7" x2="428.0" y2="252.7"/>
      <line x1="8.0" y1="205.6" x2="428.0" y2="205.6"/>
      <line x1="8.0" y1="158.6" x2="428.0" y2="158.6"/>
      <line x1="8.0" y1="111.5" x2="428.0" y2="111.5"/>
      <line x1="8.0" y1="64.5" x2="428.0" y2="64.5"/>
      <line x1="8.0" y1="17.4" x2="428.0" y2="17.4"/>
    </g>
    <g id="relative-error-1pct-axes" stroke="black" stroke-width="2">
      <line id="relative-error-1pct-__line-16" x1="8.0" y1="299.8" x2="428.0" y2="299.8" stroke="black" stroke-width="2"/>
      <g>
        <line id="relative-error-1pct-__line-17" x1="129.3" y1="302.8" x2="129.3" y2="296.8"/>
        <line id="relative-error-1pct-__line-18" x1="222.7" y1="302.8" x2="222.7" y2="296.8"/>
        <line id="relative-error-1pct-__line-19" x1="316.0" y1="302.8" x2="316.0" y2="296.8"/>
        <line id="relative-error-1pct-__line-20" x1="409.3" y1="302.8" x2="409.3" y2="296.8"/>
      </g>
      <line id="relative-error-1pct-__line-21" x1="36.0" y1="328.0" x2="36.0" y2="8.0" stroke="black" stroke-width="2"/>
      <g>
        <line id="relative-error-1pct-__line-22" x1="33.0" y1="205.6" x2="39.0" y2="205.6"/>
        <line id="relative-error-1pct-__line-23" x1="33.0" y1="111.5" x2="39.0" y2="111.5"/>
        <line id="relative-error-1pct-__line-24" x1="33.0" y1="17.4" x2="39.0" y2="17.4"/>
      </g>
    </g>
    <g id="relative-error-1pct-__label-0" transform="translate(424.0,295.8) translate(-8.5,-12.9)">
      <g id="relative-error-1pct-__g-0">
        <svg xmlns:xlink="http://www.w3.org/1999/xlink" style="vertical-align: -0.184px" width="8.488px" height="12.944px" role="img" focusable="false" viewBox="0 -705 469 715" x="0.0" y="0.0">
          <defs>
            <path id="relative-error-1pct-MJX-2-TEX-I-1D703" d="M35 200Q35 302 74 415T180 610T319 704Q320 704 327 704T339 705Q393 701 423 656Q462 596 462 495Q462 380 417 261T302 66T168 -10H161Q125 -10 99 10T60 63T41 130T35 200ZM383 566Q383 668 330 668Q294 668 260 623T204 521T170 421T157 371Q206 370 254 370L351 371Q352 372 359 404T375 484T383 566ZM113 132Q113 26 166 26Q181 26 198 36T239 74T287 161T335 307L340 324H145Q145 321 136 286T120 208T113 132Z"/>
          </defs>
          <g stroke="currentColor" fill="currentColor" stroke-width="0" transform="scale(1,-1)">
            <g data-mml-node="math">
              <g data-mml-node="mi" data-semantic-type="identifier" data-semantic-role="greekletter" data-semantic-font="italic" data-semantic-annotation="clearspeak:simple" data-semantic-id="0" data-semantic-speech="theta">
                <use data-c="1D703" xlink:href="#relative-error-1pct-MJX-2-TEX-I-1D703"/>
              </g>
            </g>
          </g>
        </svg>
      </g>
    </g>
    <g id="relative-error-1pct-__label-1" transform="translate(129.3,310.8) translate(-11.6,-0.0)">
      <g id="relative-error-1pct-__g-1">
        <svg xmlns:xlink="http://www.w3.org/1999/xlink" style="vertical-align: -0.400px" width="23.128px" height="12.456px" role="img" focusable="false" viewBox="0 -666 1278 688" x="0.0" y="0.0">
          <defs>
            <path id="relative-error-1pct-MJX-3-TEX-N-30" d="M96 585Q152 666 249 666Q297 666 345 640T423 548Q460 465 460 320Q460 165 417 83Q397 41 362 16T301 -15T250 -22Q224 -22 198 -16T137 16T82 83Q39 165 39 320Q39 494 96 585ZM321 597Q291 629 250 629Q208 629 178 597Q153 571 145 525T137 333Q137 175 145 125T181 46Q209 16 250 16Q290 16 318 46Q347 76 354 130T362 333Q362 478 354 524T321 597Z"/>
            <path id="relative-error-1pct-MJX-3-TEX-N-2E" d="M78 60Q78 84 95 102T138 120Q162 120 180 104T199 61Q199 36 182 18T139 0T96 17T78 60Z"/>
            <path id="relative-error-1pct-MJX-3-TEX-N-31" d="M213 578L200 573Q186 568 160 563T102 556H83V602H102Q149 604 189 617T245 641T273 663Q275 666 285 666Q294 666 302 660V361L303 61Q310 54 315 52T339 48T401 46H427V0H416Q395 3 257 3Q121 3 100 0H88V46H114Q136 46 152 46T177 47T193 50T201 52T207 57T213 61V578Z"/>
          </defs>
          <g stroke="currentColor" fill="currentColor" stroke-width="0" transform="scale(1,-1)">
            <g data-mml-node="math">
              <g data-mml-node="mtext" data-semantic-type="text" data-semantic-role="unknown" data-semantic-font="normal" data-semantic-annotation="clearspeak:unit" data-semantic-id="0" data-semantic-speech="0.1">
                <use data-c="30" xlink:href="#relative-error-1pct-MJX-3-TEX-N-30"/>
                <use data-c="2E" xlink:href="#relative-error-1pct-MJX-3-TEX-N-2E" transform="translate(500,0)"/>
                <use data-c="31" xlink:href="#relative-error-1pct-MJX-3-TEX-N-31" transform="translate(778,0)"/>
              </g>
            </g>
          </g>
        </svg>
      </g>
    </g>
    <g id="relative-error-1pct-__label-2" transform="translate(222.7,310.8) translate(-11.6,-0.0)">
      <g id="relative-error-1pct-__g-2">
        <svg xmlns:xlink="http://www.w3.org/1999/xlink" style="vertical-align: -0.400px" width="23.128px" height="12.456px" role="img" focusable="false" viewBox="0 -666 1278 688" x="0.0" y="0.0">
          <defs>
            <path id="relative-error-1pct-MJX-4-TEX-N-30" d="M96 585Q152 666 249 666Q297 666 345 640T423 548Q460 465 460 320Q460 165 417 83Q397 41 362 16T301 -15T250 -22Q224 -22 198 -16T137 16T82 83Q39 165 39 320Q39 494 96 585ZM321 597Q291 629 250 629Q208 629 178 597Q153 571 145 525T137 333Q137 175 145 125T181 46Q209 16 250 16Q290 16 318 46Q347 76 354 130T362 333Q362 478 354 524T321 597Z"/>
            <path id="relative-error-1pct-MJX-4-TEX-N-2E" d="M78 60Q78 84 95 102T138 120Q162 120 180 104T199 61Q199 36 182 18T139 0T96 17T78 60Z"/>
            <path id="relative-error-1pct-MJX-4-TEX-N-32" d="M109 429Q82 429 66 447T50 491Q50 562 103 614T235 666Q326 666 387 610T449 465Q449 422 429 383T381 315T301 241Q265 210 201 149L142 93L218 92Q375 92 385 97Q392 99 409 186V189H449V186Q448 183 436 95T421 3V0H50V19V31Q50 38 56 46T86 81Q115 113 136 137Q145 147 170 174T204 211T233 244T261 278T284 308T305 340T320 369T333 401T340 431T343 464Q343 527 309 573T212 619Q179 619 154 602T119 569T109 550Q109 549 114 549Q132 549 151 535T170 489Q170 464 154 447T109 429Z"/>
          </defs>
          <g stroke="currentColor" fill="currentColor" stroke-width="0" transform="scale(1,-1)">
            <g data-mml-node="math">
              <g data-mml-node="mtext" data-semantic-type="text" data-semantic-role="unknown" data-semantic-font="normal" data-semantic-annotation="clearspeak:unit" data-semantic-id="0" data-semantic-speech="0.2">
                <use data-c="30" xlink:href="#relative-error-1pct-MJX-4-TEX-N-30"/>
                <use data-c="2E" xlink:href="#relative-error-1pct-MJX-4-TEX-N-2E" transform="translate(500,0)"/>
                <use data-c="32" xlink:href="#relative-error-1pct-MJX-4-TEX-N-32" transform="translate(778,0)"/>
              </g>
            </g>
          </g>
        </svg>
      </g>
    </g>
    <g id="relative-error-1pct-__label-3" transform="translate(316.0,310.8) translate(-11.6,-0.0)">
      <g id="relative-error-1pct-__g-3">
        <svg xmlns:xlink="http://www.w3.org/1999/xlink" style="vertical-align: -0.400px" width="23.128px" height="12.456px" role="img" focusable="false" viewBox="0 -666 1278 688" x="0.0" y="0.0">
          <defs>
            <path id="relative-error-1pct-MJX-5-TEX-N-30" d="M96 585Q152 666 249 666Q297 666 345 640T423 548Q460 465 460 320Q460 165 417 83Q397 41 362 16T301 -15T250 -22Q224 -22 198 -16T137 16T82 83Q39 165 39 320Q39 494 96 585ZM321 597Q291 629 250 629Q208 629 178 597Q153 571 145 525T137 333Q137 175 145 125T181 46Q209 16 250 16Q290 16 318 46Q347 76 354 130T362 333Q362 478 354 524T321 597Z"/>
            <path id="relative-error-1pct-MJX-5-TEX-N-2E" d="M78 60Q78 84 95 102T138 120Q162 120 180 104T199 61Q199 36 182 18T139 0T96 17T78 60Z"/>
            <path id="relative-error-1pct-MJX-5-TEX-N-33" d="M127 463Q100 463 85 480T69 524Q69 579 117 622T233 665Q268 665 277 664Q351 652 390 611T430 522Q430 470 396 421T302 350L299 348Q299 347 308 345T337 336T375 315Q457 262 457 175Q457 96 395 37T238 -22Q158 -22 100 21T42 130Q42 158 60 175T105 193Q133 193 151 175T169 130Q169 119 166 110T159 94T148 82T136 74T126 70T118 67L114 66Q165 21 238 21Q293 21 321 74Q338 107 338 175V195Q338 290 274 322Q259 328 213 329L171 330L168 332Q166 335 166 348Q166 366 174 366Q202 366 232 371Q266 376 294 413T322 525V533Q322 590 287 612Q265 626 240 626Q208 626 181 615T143 592T132 580H135Q138 579 143 578T153 573T165 566T175 555T183 540T186 520Q186 498 172 481T127 463Z"/>
          </defs>
          <g stroke="currentColor" fill="currentColor" stroke-width="0" transform="scale(1,-1)">
            <g data-mml-node="math">
              <g data-mml-node="mtext" data-semantic-type="text" data-semantic-role="unknown" data-semantic-font="normal" data-semantic-annotation="clearspeak:unit" data-semantic-id="0" data-semantic-speech="0.3">
                <use data-c="30" xlink:href="#relative-error-1pct-MJX-5-TEX-N-30"/>
                <use data-c="2E" xlink:href="#relative-error-1pct-MJX-5-TEX-N-2E" transform="translate(500,0)"/>
                <use data-c="33" xlink:href="#relative-error-1pct-MJX-5-TEX-N-33" transform="translate(778,0)"/>
              </g>
            </g>
          </g>
        </svg>
      </g>
    </g>
    <g id="relative-error-1pct-__label-4" transform="translate(409.3,310.8) translate(-11.6,-0.0)">
      <g id="relative-error-1pct-__g-4">
        <svg xmlns:xlink="http://www.w3.org/1999/xlink" style="vertical-align: -0.400px" width="23.128px" height="12.648px" role="img" focusable="false" viewBox="0 -677 1278 699" x="0.0" y="0.0">
          <defs>
            <path id="relative-error-1pct-MJX-6-TEX-N-30" d="M96 585Q152 666 249 666Q297 666 345 640T423 548Q460 465 460 320Q460 165 417 83Q397 41 362 16T301 -15T250 -22Q224 -22 198 -16T137 16T82 83Q39 165 39 320Q39 494 96 585ZM321 597Q291 629 250 629Q208 629 178 597Q153 571 145 525T137 333Q137 175 145 125T181 46Q209 16 250 16Q290 16 318 46Q347 76 354 130T362 333Q362 478 354 524T321 597Z"/>
            <path id="relative-error-1pct-MJX-6-TEX-N-2E" d="M78 60Q78 84 95 102T138 120Q162 120 180 104T199 61Q199 36 182 18T139 0T96 17T78 60Z"/>
            <path id="relative-error-1pct-MJX-6-TEX-N-34" d="M462 0Q444 3 333 3Q217 3 199 0H190V46H221Q241 46 248 46T265 48T279 53T286 61Q287 63 287 115V165H28V211L179 442Q332 674 334 675Q336 677 355 677H373L379 671V211H471V165H379V114Q379 73 379 66T385 54Q393 47 442 46H471V0H462ZM293 211V545L74 212L183 211H293Z"/>
          </defs>
          <g stroke="currentColor" fill="currentColor" stroke-width="0" transform="scale(1,-1)">
            <g data-mml-node="math">
              <g data-mml-node="mtext" data-semantic-type="text" data-semantic-role="unknown" data-semantic-font="normal" data-semantic-annotation="clearspeak:unit" data-semantic-id="0" data-semantic-speech="0.4">
                <use data-c="30" xlink:href="#relative-error-1pct-MJX-6-TEX-N-30"/>
                <use data-c="2E" xlink:href="#relative-error-1pct-MJX-6-TEX-N-2E" transform="translate(500,0)"/>
                <use data-c="34" xlink:href="#relative-error-1pct-MJX-6-TEX-N-34" transform="translate(778,0)"/>
              </g>
            </g>
          </g>
        </svg>
      </g>
    </g>
    <g id="relative-error-1pct-__label-5" transform="translate(25.0,205.6) translate(-32.2,-6.2)">
      <g id="relative-error-1pct-__g-5">
        <svg xmlns:xlink="http://www.w3.org/1999/xlink" style="vertical-align: -0.400px" width="32.184px" height="12.456px" role="img" focusable="false" viewBox="0 -666 1778 688" x="0.0" y="0.0">
          <defs>
            <path id="relative-error-1pct-MJX-7-TEX-N-30" d="M96 585Q152 666 249 666Q297 666 345 640T423 548Q460 465 460 320Q460 165 417 83Q397 41 362 16T301 -15T250 -22Q224 -22 198 -16T137 16T82 83Q39 165 39 320Q39 494 96 585ZM321 597Q291 629 250 629Q208 629 178 597Q153 571 145 525T137 333Q137 175 145 125T181 46Q209 16 250 16Q290 16 318 46Q347 76 354 130T362 333Q362 478 354 524T321 597Z"/>
            <path id="relative-error-1pct-MJX-7-TEX-N-2E" d="M78 60Q78 84 95 102T138 120Q162 120 180 104T199 61Q199 36 182 18T139 0T96 17T78 60Z"/>
            <path id="relative-error-1pct-MJX-7-TEX-N-31" d="M213 578L200 573Q186 568 160 563T102 556H83V602H102Q149 604 189 617T245 641T273 663Q275 666 285 666Q294 666 302 660V361L303 61Q310 54 315 52T339 48T401 46H427V0H416Q395 3 257 3Q121 3 100 0H88V46H114Q136 46 152 46T177 47T193 50T201 52T207 57T213 61V578Z"/>
          </defs>
          <g stroke="currentColor" fill="currentColor" stroke-width="0" transform="scale(1,-1)">
            <g data-mml-node="math">
              <g data-mml-node="mtext" data-semantic-type="text" data-semantic-role="unknown" data-semantic-font="normal" data-semantic-annotation="clearspeak:unit" data-semantic-id="0" data-semantic-speech="0.01">
                <use data-c="30" xlink:href="#relative-error-1pct-MJX-7-TEX-N-30"/>
                <use data-c="2E" xlink:href="#relative-error-1pct-MJX-7-TEX-N-2E" transform="translate(500,0)"/>
                <use data-c="30" xlink:href="#relative-error-1pct-MJX-7-TEX-N-30" transform="translate(778,0)"/>
                <use data-c="31" xlink:href="#relative-error-1pct-MJX-7-TEX-N-31" transform="translate(1278,0)"/>
              </g>
            </g>
          </g>
        </svg>
      </g>
    </g>
    <g id="relative-error-1pct-__label-6" transform="translate(25.0,111.5) translate(-32.2,-6.2)">
      <g id="relative-error-1pct-__g-6">
        <svg xmlns:xlink="http://www.w3.org/1999/xlink" style="vertical-align: -0.400px" width="32.184px" height="12.456px" role="img" focusable="false" viewBox="0 -666 1778 688" x="0.0" y="0.0">
          <defs>
            <path id="relative-error-1pct-MJX-8-TEX-N-30" d="M96 585Q152 666 249 666Q297 666 345 640T423 548Q460 465 460 320Q460 165 417 83Q397 41 362 16T301 -15T250 -22Q224 -22 198 -16T137 16T82 83Q39 165 39 320Q39 494 96 585ZM321 597Q291 629 250 629Q208 629 178 597Q153 571 145 525T137 333Q137 175 145 125T181 46Q209 16 250 16Q290 16 318 46Q347 76 354 130T362 333Q362 478 354 524T321 597Z"/>
            <path id="relative-error-1pct-MJX-8-TEX-N-2E" d="M78 60Q78 84 95 102T138 120Q162 120 180 104T199 61Q199 36 182 18T139 0T96 17T78 60Z"/>
            <path id="relative-error-1pct-MJX-8-TEX-N-32" d="M109 429Q82 429 66 447T50 491Q50 562 103 614T235 666Q326 666 387 610T449 465Q449 422 429 383T381 315T301 241Q265 210 201 149L142 93L218 92Q375 92 385 97Q392 99 409 186V189H449V186Q448 183 436 95T421 3V0H50V19V31Q50 38 56 46T86 81Q115 113 136 137Q145 147 170 174T204 211T233 244T261 278T284 308T305 340T320 369T333 401T340 431T343 464Q343 527 309 573T212 619Q179 619 154 602T119 569T109 550Q109 549 114 549Q132 549 151 535T170 489Q170 464 154 447T109 429Z"/>
          </defs>
          <g stroke="currentColor" fill="currentColor" stroke-width="0" transform="scale(1,-1)">
            <g data-mml-node="math">
              <g data-mml-node="mtext" data-semantic-type="text" data-semantic-role="unknown" data-semantic-font="normal" data-semantic-annotation="clearspeak:unit" data-semantic-id="0" data-semantic-speech="0.02">
                <use data-c="30" xlink:href="#relative-error-1pct-MJX-8-TEX-N-30"/>
                <use data-c="2E" xlink:href="#relative-error-1pct-MJX-8-TEX-N-2E" transform="translate(500,0)"/>
                <use data-c="30" xlink:href="#relative-error-1pct-MJX-8-TEX-N-30" transform="translate(778,0)"/>
                <use data-c="32" xlink:href="#relative-error-1pct-MJX-8-TEX-N-32" transform="translate(1278,0)"/>
              </g>
            </g>
          </g>
        </svg>
      </g>
    </g>
    <g id="relative-error-1pct-__label-7" transform="translate(25.0,17.4) translate(-32.2,-6.2)">
      <g id="relative-error-1pct-__g-7">
        <svg xmlns:xlink="http://www.w3.org/1999/xlink" style="vertical-align: -0.400px" width="32.184px" height="12.456px" role="img" focusable="false" viewBox="0 -666 1778 688" x="0.0" y="0.0">
          <defs>
            <path id="relative-error-1pct-MJX-9-TEX-N-30" d="M96 585Q152 666 249 666Q297 666 345 640T423 548Q460 465 460 320Q460 165 417 83Q397 41 362 16T301 -15T250 -22Q224 -22 198 -16T137 16T82 83Q39 165 39 320Q39 494 96 585ZM321 597Q291 629 250 629Q208 629 178 597Q153 571 145 525T137 333Q137 175 145 125T181 46Q209 16 250 16Q290 16 318 46Q347 76 354 130T362 333Q362 478 354 524T321 597Z"/>
            <path id="relative-error-1pct-MJX-9-TEX-N-2E" d="M78 60Q78 84 95 102T138 120Q162 120 180 104T199 61Q199 36 182 18T139 0T96 17T78 60Z"/>
            <path id="relative-error-1pct-MJX-9-TEX-N-33" d="M127 463Q100 463 85 480T69 524Q69 579 117 622T233 665Q268 665 277 664Q351 652 390 611T430 522Q430 470 396 421T302 350L299 348Q299 347 308 345T337 336T375 315Q457 262 457 175Q457 96 395 37T238 -22Q158 -22 100 21T42 130Q42 158 60 175T105 193Q133 193 151 175T169 130Q169 119 166 110T159 94T148 82T136 74T126 70T118 67L114 66Q165 21 238 21Q293 21 321 74Q338 107 338 175V195Q338 290 274 322Q259 328 213 329L171 330L168 332Q166 335 166 348Q166 366 174 366Q202 366 232 371Q266 376 294 413T322 525V533Q322 590 287 612Q265 626 240 626Q208 626 181 615T143 592T132 580H135Q138 579 143 578T153 573T165 566T175 555T183 540T186 520Q186 498 172 481T127 463Z"/>
          </defs>
          <g stroke="currentColor" fill="currentColor" stroke-width="0" transform="scale(1,-1)">
            <g data-mml-node="math">
              <g data-mml-node="mtext" data-semantic-type="text" data-semantic-role="unknown" data-semantic-font="normal" data-semantic-annotation="clearspeak:unit" data-semantic-id="0" data-semantic-speech="0.03">
                <use data-c="30" xlink:href="#relative-error-1pct-MJX-9-TEX-N-30"/>
                <use data-c="2E" xlink:href="#relative-error-1pct-MJX-9-TEX-N-2E" transform="translate(500,0)"/>
                <use data-c="30" xlink:href="#relative-error-1pct-MJX-9-TEX-N-30" transform="translate(778,0)"/>
                <use data-c="33" xlink:href="#relative-error-1pct-MJX-9-TEX-N-33" transform="translate(1278,0)"/>
              </g>
            </g>
          </g>
        </svg>
      </g>
    </g>
  </g>
  <line id="relative-error-1pct-onepct" x1="17.3" y1="205.6" x2="428.0" y2="205.6" stroke="red" stroke-width="1.5" stroke-dasharray="5 4" fill="none"/>
  <g id="relative-error-1pct-pctlabel" transform="translate(54.7,197.6) translate(-54.0,-18.1)">
    <g id="relative-error-1pct-__g-8">
      <svg xmlns:xlink="http://www.w3.org/1999/xlink" style="vertical-align: -4.528px; color:red" width="107.920px" height="18.096px" role="img" focusable="false" viewBox="0 -750 5962.6 1000" x="0.0" y="0.0">
        <defs>
          <path id="relative-error-1pct-MJX-10-TEX-I-1D466" d="M21 287Q21 301 36 335T84 406T158 442Q199 442 224 419T250 355Q248 336 247 334Q247 331 231 288T198 191T182 105Q182 62 196 45T238 27Q261 27 281 38T312 61T339 94Q339 95 344 114T358 173T377 247Q415 397 419 404Q432 431 462 431Q475 431 483 424T494 412T496 403Q496 390 447 193T391 -23Q363 -106 294 -155T156 -205Q111 -205 77 -183T43 -117Q43 -95 50 -80T69 -58T89 -48T106 -45Q150 -45 150 -87Q150 -107 138 -122T115 -142T102 -147L99 -148Q101 -153 118 -160T152 -167H160Q177 -167 186 -165Q219 -156 247 -127T290 -65T313 -9T321 21L315 17Q309 13 296 6T270 -6Q250 -11 231 -11Q185 -11 150 11T104 82Q103 89 103 113Q103 170 138 262T173 379Q173 380 173 381Q173 390 173 393T169 400T158 404H154Q131 404 112 385T82 344T65 302T57 280Q55 278 41 278H27Q21 284 21 287Z"/>
          <path id="relative-error-1pct-MJX-10-TEX-N-3D" d="M56 347Q56 360 70 367H707Q722 359 722 347Q722 336 708 328L390 327H72Q56 332 56 347ZM56 153Q56 168 72 173H708Q722 163 722 153Q722 140 707 133H70Q56 140 56 153Z"/>
          <path id="relative-error-1pct-MJX-10-TEX-N-30" d="M96 585Q152 666 249 666Q297 666 345 640T423 548Q460 465 460 320Q460 165 417 83Q397 41 362 16T301 -15T250 -22Q224 -22 198 -16T137 16T82 83Q39 165 39 320Q39 494 96 585ZM321 597Q291 629 250 629Q208 629 178 597Q153 571 145 525T137 333Q137 175 145 125T181 46Q209 16 250 16Q290 16 318 46Q347 76 354 130T362 333Q362 478 354 524T321 597Z"/>
          <path id="relative-error-1pct-MJX-10-TEX-N-2E" d="M78 60Q78 84 95 102T138 120Q162 120 180 104T199 61Q199 36 182 18T139 0T96 17T78 60Z"/>
          <path id="relative-error-1pct-MJX-10-TEX-N-31" d="M213 578L200 573Q186 568 160 563T102 556H83V602H102Q149 604 189 617T245 641T273 663Q275 666 285 666Q294 666 302 660V361L303 61Q310 54 315 52T339 48T401 46H427V0H416Q395 3 257 3Q121 3 100 0H88V46H114Q136 46 152 46T177 47T193 50T201 52T207 57T213 61V578Z"/>
          <path id="relative-error-1pct-MJX-10-TEX-N-A0" d=""/>
          <path id="relative-error-1pct-MJX-10-TEX-N-28" d="M94 250Q94 319 104 381T127 488T164 576T202 643T244 695T277 729T302 750H315H319Q333 750 333 741Q333 738 316 720T275 667T226 581T184 443T167 250T184 58T225 -81T274 -167T316 -220T333 -241Q333 -250 318 -250H315H302L274 -226Q180 -141 137 -14T94 250Z"/>
          <path id="relative-error-1pct-MJX-10-TEX-N-25" d="M465 605Q428 605 394 614T340 632T319 641Q332 608 332 548Q332 458 293 403T202 347Q145 347 101 402T56 548Q56 637 101 693T202 750Q241 750 272 719Q359 642 464 642Q580 642 650 732Q662 748 668 749Q670 750 673 750Q682 750 688 743T693 726Q178 -47 170 -52Q166 -56 160 -56Q147 -56 142 -45Q137 -36 142 -27Q143 -24 363 304Q469 462 525 546T581 630Q528 605 465 605ZM207 385Q235 385 263 427T292 548Q292 617 267 664T200 712Q193 712 186 709T167 698T147 668T134 615Q132 595 132 548V527Q132 436 165 403Q183 385 203 385H207ZM500 146Q500 234 544 290T647 347Q699 347 737 292T776 146T737 0T646 -56Q590 -56 545 0T500 146ZM651 -18Q679 -18 707 24T736 146Q736 215 711 262T644 309Q637 309 630 306T611 295T591 265T578 212Q577 200 577 146V124Q577 -18 647 -18H651Z"/>
          <path id="relative-error-1pct-MJX-10-TEX-N-29" d="M60 749L64 750Q69 750 74 750H86L114 726Q208 641 251 514T294 250Q294 182 284 119T261 12T224 -76T186 -143T145 -194T113 -227T90 -246Q87 -249 86 -250H74Q66 -250 63 -250T58 -247T55 -238Q56 -237 66 -225Q221 -64 221 250T66 725Q56 737 55 738Q55 746 60 749Z"/>
        </defs>
        <g stroke="currentColor" fill="currentColor" stroke-width="0" transform="scale(1,-1)">
          <g data-mml-node="math" data-semantic-type="punctuated" data-semantic-role="text" data-semantic-id="13" data-semantic-children="10,3,9" data-semantic-collapsed="(13 (c 11 12) 10 3 9)" data-semantic-speech="y equals 0.01 left parenthesis 1 percent sign right parenthesis">
            <g data-mml-node="mrow" data-semantic-type="relseq" data-semantic-role="equality" data-semantic-id="10" data-semantic-children="0,2" data-semantic-content="1" data-semantic-parent="13" data-semantic-speech="y equals 0.01">
              <g data-mml-node="mi" data-semantic-type="identifier" data-semantic-role="latinletter" data-semantic-font="italic" data-semantic-annotation="clearspeak:simple" data-semantic-id="0" data-semantic-parent="10" data-semantic-speech="y">
                <use data-c="1D466" xlink:href="#relative-error-1pct-MJX-10-TEX-I-1D466"/>
              </g>
              <g data-mml-node="mo" data-semantic-type="relation" data-semantic-role="equality" data-semantic-id="1" data-semantic-parent="10" data-semantic-operator="relseq,=" data-semantic-speech="equals" transform="translate(767.8,0)">
                <use data-c="3D" xlink:href="#relative-error-1pct-MJX-10-TEX-N-3D"/>
              </g>
              <g data-mml-node="mn" data-semantic-type="number" data-semantic-role="float" data-semantic-font="normal" data-semantic-annotation="clearspeak:simple" data-semantic-id="2" data-semantic-parent="10" data-semantic-speech="0.01" transform="translate(1823.6,0)">
                <use data-c="30" xlink:href="#relative-error-1pct-MJX-10-TEX-N-30"/>
                <use data-c="2E" xlink:href="#relative-error-1pct-MJX-10-TEX-N-2E" transform="translate(500,0)"/>
                <use data-c="30" xlink:href="#relative-error-1pct-MJX-10-TEX-N-30" transform="translate(778,0)"/>
                <use data-c="31" xlink:href="#relative-error-1pct-MJX-10-TEX-N-31" transform="translate(1278,0)"/>
              </g>
            </g>
            <g data-mml-node="mtext" data-semantic-type="text" data-semantic-role="space" data-semantic-annotation="clearspeak:unit" data-semantic-id="3" data-semantic-parent="13" data-semantic-speech="" transform="translate(3601.6,0)">
              <use data-c="A0" xlink:href="#relative-error-1pct-MJX-10-TEX-N-A0"/>
            </g>
            <g data-mml-node="mrow" data-semantic-type="fenced" data-semantic-role="leftright" data-semantic-id="9" data-semantic-children="8" data-semantic-content="4,7" data-semantic-parent="13" data-semantic-speech="left parenthesis 1 percent sign right parenthesis" transform="translate(3851.6,0)">
              <g data-mml-node="mo" data-semantic-type="fence" data-semantic-role="open" data-semantic-id="4" data-semantic-parent="9" data-semantic-operator="fenced" data-semantic-speech="left parenthesis">
                <use data-c="28" xlink:href="#relative-error-1pct-MJX-10-TEX-N-28"/>
              </g>
              <g data-mml-node="mrow" data-semantic-type="punctuated" data-semantic-role="endpunct" data-semantic-id="8" data-semantic-children="5,6" data-semantic-content="6" data-semantic-parent="9" data-semantic-speech="1 percent sign" transform="translate(389,0)">
                <g data-mml-node="mn" data-semantic-type="number" data-semantic-role="integer" data-semantic-font="normal" data-semantic-annotation="clearspeak:simple" data-semantic-id="5" data-semantic-parent="8" data-semantic-speech="1">
                  <use data-c="31" xlink:href="#relative-error-1pct-MJX-10-TEX-N-31"/>
                </g>
                <g data-mml-node="mi" data-semantic-type="punctuation" data-semantic-role="unknown" data-semantic-font="normal" data-semantic-id="6" data-semantic-parent="8" data-semantic-operator="punctuated" data-semantic-speech="percent sign" transform="translate(500,0)">
                  <use data-c="25" xlink:href="#relative-error-1pct-MJX-10-TEX-N-25"/>
                </g>
              </g>
              <g data-mml-node="mo" data-semantic-type="fence" data-semantic-role="close" data-semantic-id="7" data-semantic-parent="9" data-semantic-operator="fenced" data-semantic-speech="right parenthesis" transform="translate(1722,0)">
                <use data-c="29" xlink:href="#relative-error-1pct-MJX-10-TEX-N-29"/>
              </g>
            </g>
          </g>
        </g>
      </svg>
    </g>
  </g>
  <path id="relative-error-1pct-gcurve" stroke="blue" stroke-width="2.5" fill="none" d="M 39.7 299.7 L 43.4 299.7 L 47.1 299.5 L 50.8 299.4 L 54.5 299.1 L 58.2 298.9 L 61.9 298.6 L 65.6 298.2 L 69.3 297.8 L 73.0 297.3 L 76.7 296.8 L 80.4 296.2 L 84.1 295.6 L 87.8 294.9 L 91.5 294.2 L 95.2 293.5 L 98.9 292.6 L 102.6 291.8 L 106.3 290.9 L 110.0 289.9 L 113.7 288.9 L 117.3 287.8 L 121.0 286.7 L 124.7 285.6 L 128.4 284.4 L 132.1 283.1 L 135.8 281.8 L 139.5 280.4 L 143.2 279.0 L 146.9 277.6 L 150.6 276.1 L 154.3 274.5 L 158.0 272.9 L 161.7 271.3 L 165.4 269.5 L 169.1 267.8 L 172.8 266.0 L 176.5 264.1 L 180.2 262.2 L 183.9 260.3 L 187.6 258.3 L 191.3 256.2 L 195.0 254.1 L 198.7 252.0 L 202.4 249.7 L 206.1 247.5 L 209.7 245.2 L 213.4 242.8 L 217.1 240.4 L 220.8 238.0 L 224.5 235.5 L 228.2 232.9 L 231.9 230.3 L 235.6 227.6 L 239.3 224.9 L 243.0 222.2 L 246.7 219.3 L 250.4 216.5 L 254.1 213.6 L 257.8 210.6 L 261.5 207.6 L 265.2 204.5 L 268.9 201.4 L 272.6 198.2 L 276.3 195.0 L 280.0 191.7 L 283.7 188.4 L 287.4 185.0 L 291.1 181.6 L 294.8 178.1 L 298.5 174.6 L 302.1 171.0 L 305.8 167.4 L 309.5 163.7 L 313.2 159.9 L 316.9 156.1 L 320.6 152.3 L 324.3 148.4 L 328.0 144.4 L 331.7 140.4 L 335.4 136.4 L 339.1 132.3 L 342.8 128.1 L 346.5 123.9 L 350.2 119.6 L 353.9 115.3 L 357.6 110.9 L 361.3 106.5 L 365.0 102.0 L 368.7 97.5 L 372.4 92.9 L 376.1 88.2 L 379.8 83.5 L 383.5 78.8 L 387.2 74.0 L 390.9 69.1 L 394.5 64.2 L 398.2 59.3 L 401.9 54.2 L 405.6 49.2 L 409.3 44.0" clip-path="url(#relative-error-1pct-__clipPath-1)"/>
  <g id="relative-error-1pct-glabel" transform="translate(366.0,85.6) translate(-82.4,-39.0)">
    <g id="relative-error-1pct-__g-9">
      <svg xmlns:xlink="http://www.w3.org/1999/xlink" style="vertical-align: -12.616px; color:blue" width="82.376px" height="39.024px" role="img" focusable="false" viewBox="0 -1459 4551.1 2156" x="0.0" y="0.0">
        <defs>
          <path id="relative-error-1pct-MJX-11-TEX-N-7C" d="M139 -249H137Q125 -249 119 -235V251L120 737Q130 750 139 750Q152 750 159 735V-235Q151 -249 141 -249H139Z"/>
          <path id="relative-error-1pct-MJX-11-TEX-I-1D703" d="M35 200Q35 302 74 415T180 610T319 704Q320 704 327 704T339 705Q393 701 423 656Q462 596 462 495Q462 380 417 261T302 66T168 -10H161Q125 -10 99 10T60 63T41 130T35 200ZM383 566Q383 668 330 668Q294 668 260 623T204 521T170 421T157 371Q206 370 254 370L351 371Q352 372 359 404T375 484T383 566ZM113 132Q113 26 166 26Q181 26 198 36T239 74T287 161T335 307L340 324H145Q145 321 136 286T120 208T113 132Z"/>
          <path id="relative-error-1pct-MJX-11-TEX-N-2212" d="M84 237T84 250T98 270H679Q694 262 694 250T679 230H98Q84 237 84 250Z"/>
          <path id="relative-error-1pct-MJX-11-TEX-N-73" d="M295 316Q295 356 268 385T190 414Q154 414 128 401Q98 382 98 349Q97 344 98 336T114 312T157 287Q175 282 201 278T245 269T277 256Q294 248 310 236T342 195T359 133Q359 71 321 31T198 -10H190Q138 -10 94 26L86 19L77 10Q71 4 65 -1L54 -11H46H42Q39 -11 33 -5V74V132Q33 153 35 157T45 162H54Q66 162 70 158T75 146T82 119T101 77Q136 26 198 26Q295 26 295 104Q295 133 277 151Q257 175 194 187T111 210Q75 227 54 256T33 318Q33 357 50 384T93 424T143 442T187 447H198Q238 447 268 432L283 424L292 431Q302 440 314 448H322H326Q329 448 335 442V310L329 304H301Q295 310 295 316Z"/>
          <path id="relative-error-1pct-MJX-11-TEX-N-69" d="M69 609Q69 637 87 653T131 669Q154 667 171 652T188 609Q188 579 171 564T129 549Q104 549 87 564T69 609ZM247 0Q232 3 143 3Q132 3 106 3T56 1L34 0H26V46H42Q70 46 91 49Q100 53 102 60T104 102V205V293Q104 345 102 359T88 378Q74 385 41 385H30V408Q30 431 32 431L42 432Q52 433 70 434T106 436Q123 437 142 438T171 441T182 442H185V62Q190 52 197 50T232 46H255V0H247Z"/>
          <path id="relative-error-1pct-MJX-11-TEX-N-6E" d="M41 46H55Q94 46 102 60V68Q102 77 102 91T102 122T103 161T103 203Q103 234 103 269T102 328V351Q99 370 88 376T43 385H25V408Q25 431 27 431L37 432Q47 433 65 434T102 436Q119 437 138 438T167 441T178 442H181V402Q181 364 182 364T187 369T199 384T218 402T247 421T285 437Q305 442 336 442Q450 438 463 329Q464 322 464 190V104Q464 66 466 59T477 49Q498 46 526 46H542V0H534L510 1Q487 2 460 2T422 3Q319 3 310 0H302V46H318Q379 46 379 62Q380 64 380 200Q379 335 378 343Q372 371 358 385T334 402T308 404Q263 404 229 370Q202 343 195 315T187 232V168V108Q187 78 188 68T191 55T200 49Q221 46 249 46H265V0H257L234 1Q210 2 183 2T145 3Q42 3 33 0H25V46H41Z"/>
          <path id="relative-error-1pct-MJX-11-TEX-N-2061" d=""/>
        </defs>
        <g stroke="currentColor" fill="currentColor" stroke-width="0" transform="scale(1,-1)">
          <g data-mml-node="math">
            <g data-mml-node="mstyle">
              <g data-mml-node="mfrac" data-semantic-type="fraction" data-semantic-role="division" data-semantic-id="16" data-semantic-children="10,15" data-semantic-speech="StartFraction StartAbsoluteValue theta minus sine theta EndAbsoluteValue Over sine theta EndFraction">
                <g data-mml-node="mrow" data-semantic-type="fenced" data-semantic-role="neutral" data-semantic-id="10" data-semantic-children="9" data-semantic-content="0,6" data-semantic-parent="16" data-semantic-speech="StartAbsoluteValue theta minus sine theta EndAbsoluteValue" data-semantic-prefix="Numerator" transform="translate(220,709.5)">
                  <g data-mml-node="mo" data-semantic-type="fence" data-semantic-role="neutral" data-semantic-id="0" data-semantic-parent="10" data-semantic-attributes="texclass:ORD" data-semantic-operator="fenced" data-semantic-speech="vertical bar" transform="translate(0 -0.5)">
                    <use data-c="7C" xlink:href="#relative-error-1pct-MJX-11-TEX-N-7C"/>
                  </g>
                  <g data-mml-node="mrow" data-semantic-type="infixop" data-semantic-role="subtraction" data-semantic-id="9" data-semantic-children="1,8" data-semantic-content="2" data-semantic-parent="10" data-semantic-speech="theta minus sine theta" transform="translate(278,0)">
                    <g data-mml-node="mi" data-semantic-type="identifier" data-semantic-role="greekletter" data-semantic-font="italic" data-semantic-annotation="clearspeak:simple" data-semantic-id="1" data-semantic-parent="9" data-semantic-speech="theta">
                      <use data-c="1D703" xlink:href="#relative-error-1pct-MJX-11-TEX-I-1D703"/>
                    </g>
                    <g data-mml-node="mo" data-semantic-type="operator" data-semantic-role="subtraction" data-semantic-id="2" data-semantic-parent="9" data-semantic-operator="infixop,−" data-semantic-speech="minus" transform="translate(691.2,0)">
                      <use data-c="2212" xlink:href="#relative-error-1pct-MJX-11-TEX-N-2212"/>
                    </g>
                    <g data-mml-node="mrow" data-semantic-type="appl" data-semantic-role="prefix function" data-semantic-annotation="clearspeak:simple" data-semantic-id="8" data-semantic-children="3,5" data-semantic-content="7,3" data-semantic-parent="9" data-semantic-speech="sine theta" transform="translate(1691.4,0)">
                      <g data-mml-node="mi" data-semantic-type="function" data-semantic-role="prefix function" data-semantic-font="normal" data-semantic-id="3" data-semantic-parent="8" data-semantic-operator="appl" data-semantic-speech="sine">
                        <use data-c="73" xlink:href="#relative-error-1pct-MJX-11-TEX-N-73"/>
                        <use data-c="69" xlink:href="#relative-error-1pct-MJX-11-TEX-N-69" transform="translate(394,0)"/>
                        <use data-c="6E" xlink:href="#relative-error-1pct-MJX-11-TEX-N-6E" transform="translate(672,0)"/>
                      </g>
                      <g data-mml-node="mo" data-semantic-type="punctuation" data-semantic-role="application" data-semantic-id="7" data-semantic-parent="8" data-semantic-attributes="texclass:NONE" data-semantic-operator="appl" data-semantic-speech="of" transform="translate(1228,0)">
                        <use data-c="2061" xlink:href="#relative-error-1pct-MJX-11-TEX-N-2061"/>
                      </g>
                      <g data-mml-node="mi" data-semantic-type="identifier" data-semantic-role="greekletter" data-semantic-font="italic" data-semantic-annotation="clearspeak:simple" data-semantic-id="5" data-semantic-parent="8" data-semantic-speech="theta" transform="translate(1394.7,0)">
                        <use data-c="1D703" xlink:href="#relative-error-1pct-MJX-11-TEX-I-1D703"/>
                      </g>
                    </g>
                  </g>
                  <g data-mml-node="mo" data-semantic-type="fence" data-semantic-role="neutral" data-semantic-id="6" data-semantic-parent="10" data-semantic-attributes="texclass:ORD" data-semantic-operator="fenced" data-semantic-speech="vertical bar" transform="translate(3833.1,0) translate(0 -0.5)">
                    <use data-c="7C" xlink:href="#relative-error-1pct-MJX-11-TEX-N-7C"/>
                  </g>
                </g>
                <g data-mml-node="mrow" data-semantic-type="appl" data-semantic-role="prefix function" data-semantic-annotation="clearspeak:simple" data-semantic-id="15" data-semantic-children="11,13" data-semantic-content="14,11" data-semantic-parent="16" data-semantic-speech="sine theta" data-semantic-prefix="Denominator" transform="translate(1343.7,-686)">
                  <g data-mml-node="mi" data-semantic-type="function" data-semantic-role="prefix function" data-semantic-font="normal" data-semantic-id="11" data-semantic-parent="15" data-semantic-operator="appl" data-semantic-speech="sine">
                    <use data-c="73" xlink:href="#relative-error-1pct-MJX-11-TEX-N-73"/>
                    <use data-c="69" xlink:href="#relative-error-1pct-MJX-11-TEX-N-69" transform="translate(394,0)"/>
                    <use data-c="6E" xlink:href="#relative-error-1pct-MJX-11-TEX-N-6E" transform="translate(672,0)"/>
                  </g>
                  <g data-mml-node="mo" data-semantic-type="punctuation" data-semantic-role="application" data-semantic-id="14" data-semantic-parent="15" data-semantic-attributes="texclass:NONE" data-semantic-operator="appl" data-semantic-speech="of" transform="translate(1228,0)">
                    <use data-c="2061" xlink:href="#relative-error-1pct-MJX-11-TEX-N-2061"/>
                  </g>
                  <g data-mml-node="mi" data-semantic-type="identifier" data-semantic-role="greekletter" data-semantic-font="italic" data-semantic-annotation="clearspeak:simple" data-semantic-id="13" data-semantic-parent="15" data-semantic-speech="theta" transform="translate(1394.7,0)">
                    <use data-c="1D703" xlink:href="#relative-error-1pct-MJX-11-TEX-I-1D703"/>
                  </g>
                </g>
                <rect width="4311.1" height="60" x="120" y="220"/>
              </g>
            </g>
          </g>
        </g>
      </svg>
    </g>
  </g>
  <line id="relative-error-1pct-drop" x1="263.8" y1="299.8" x2="263.8" y2="205.6" stroke="#777" stroke-width="1" stroke-dasharray="4 4" fill="none"/>
  <circle id="relative-error-1pct-xpoint" cx="263.8" cy="205.6" r="4" stroke="black" stroke-width="2" fill="black"/>
  <g id="relative-error-1pct-xlabel" transform="translate(273.8,211.6) translate(0.0,-0.0)">
    <g id="relative-error-1pct-__g-10">
      <svg xmlns:xlink="http://www.w3.org/1999/xlink" style="vertical-align: -0.400px" width="81.760px" height="13.160px" role="img" focusable="false" viewBox="0 -705 4517.1 727" x="0.0" y="0.0">
        <defs>
          <path id="relative-error-1pct-MJX-12-TEX-I-1D703" d="M35 200Q35 302 74 415T180 610T319 704Q320 704 327 704T339 705Q393 701 423 656Q462 596 462 495Q462 380 417 261T302 66T168 -10H161Q125 -10 99 10T60 63T41 130T35 200ZM383 566Q383 668 330 668Q294 668 260 623T204 521T170 421T157 371Q206 370 254 370L351 371Q352 372 359 404T375 484T383 566ZM113 132Q113 26 166 26Q181 26 198 36T239 74T287 161T335 307L340 324H145Q145 321 136 286T120 208T113 132Z"/>
          <path id="relative-error-1pct-MJX-12-TEX-N-2217" d="M229 286Q216 420 216 436Q216 454 240 464Q241 464 245 464T251 465Q263 464 273 456T283 436Q283 419 277 356T270 286L328 328Q384 369 389 372T399 375Q412 375 423 365T435 338Q435 325 425 315Q420 312 357 282T289 250L355 219L425 184Q434 175 434 161Q434 146 425 136T401 125Q393 125 383 131T328 171L270 213Q283 79 283 63Q283 53 276 44T250 35Q231 35 224 44T216 63Q216 80 222 143T229 213L171 171Q115 130 110 127Q106 124 100 124Q87 124 76 134T64 161Q64 166 64 169T67 175T72 181T81 188T94 195T113 204T138 215T170 230T210 250L74 315Q65 324 65 338Q65 353 74 363T98 374Q106 374 116 368T171 328L229 286Z"/>
          <path id="relative-error-1pct-MJX-12-TEX-N-2248" d="M55 319Q55 360 72 393T114 444T163 472T205 482Q207 482 213 482T223 483Q262 483 296 468T393 413L443 381Q502 346 553 346Q609 346 649 375T694 454Q694 465 698 474T708 483Q722 483 722 452Q722 386 675 338T555 289Q514 289 468 310T388 357T308 404T224 426Q164 426 125 393T83 318Q81 289 69 289Q55 289 55 319ZM55 85Q55 126 72 159T114 210T163 238T205 248Q207 248 213 248T223 249Q262 249 296 234T393 179L443 147Q502 112 553 112Q609 112 649 141T694 220Q694 249 708 249T722 217Q722 153 675 104T555 55Q514 55 468 76T388 123T308 170T224 192Q164 192 125 159T83 84Q80 55 69 55Q55 55 55 85Z"/>
          <path id="relative-error-1pct-MJX-12-TEX-N-30" d="M96 585Q152 666 249 666Q297 666 345 640T423 548Q460 465 460 320Q460 165 417 83Q397 41 362 16T301 -15T250 -22Q224 -22 198 -16T137 16T82 83Q39 165 39 320Q39 494 96 585ZM321 597Q291 629 250 629Q208 629 178 597Q153 571 145 525T137 333Q137 175 145 125T181 46Q209 16 250 16Q290 16 318 46Q347 76 354 130T362 333Q362 478 354 524T321 597Z"/>
          <path id="relative-error-1pct-MJX-12-TEX-N-2E" d="M78 60Q78 84 95 102T138 120Q162 120 180 104T199 61Q199 36 182 18T139 0T96 17T78 60Z"/>
          <path id="relative-error-1pct-MJX-12-TEX-N-32" d="M109 429Q82 429 66 447T50 491Q50 562 103 614T235 666Q326 666 387 610T449 465Q449 422 429 383T381 315T301 241Q265 210 201 149L142 93L218 92Q375 92 385 97Q392 99 409 186V189H449V186Q448 183 436 95T421 3V0H50V19V31Q50 38 56 46T86 81Q115 113 136 137Q145 147 170 174T204 211T233 244T261 278T284 308T305 340T320 369T333 401T340 431T343 464Q343 527 309 573T212 619Q179 619 154 602T119 569T109 550Q109 549 114 549Q132 549 151 535T170 489Q170 464 154 447T109 429Z"/>
          <path id="relative-error-1pct-MJX-12-TEX-N-34" d="M462 0Q444 3 333 3Q217 3 199 0H190V46H221Q241 46 248 46T265 48T279 53T286 61Q287 63 287 115V165H28V211L179 442Q332 674 334 675Q336 677 355 677H373L379 671V211H471V165H379V114Q379 73 379 66T385 54Q393 47 442 46H471V0H462ZM293 211V545L74 212L183 211H293Z"/>
        </defs>
        <g stroke="currentColor" fill="currentColor" stroke-width="0" transform="scale(1,-1)">
          <g data-mml-node="math" data-semantic-type="relseq" data-semantic-role="equality" data-semantic-id="5" data-semantic-children="2,4" data-semantic-content="3" data-semantic-speech="theta Superscript asterisk Baseline almost equals 0.244">
            <g data-mml-node="msup" data-semantic-type="superscript" data-semantic-role="greekletter" data-semantic-id="2" data-semantic-children="0,1" data-semantic-parent="5" data-semantic-speech="theta Superscript asterisk Baseline">
              <g data-mml-node="mi" data-semantic-type="identifier" data-semantic-role="greekletter" data-semantic-font="italic" data-semantic-annotation="clearspeak:simple" data-semantic-id="0" data-semantic-parent="2" data-semantic-speech="theta" data-semantic-prefix="Base">
                <use data-c="1D703" xlink:href="#relative-error-1pct-MJX-12-TEX-I-1D703"/>
              </g>
              <g data-mml-node="mo" transform="translate(502,363) scale(0.707)" data-semantic-type="operator" data-semantic-role="multiplication" data-semantic-id="1" data-semantic-parent="2" data-semantic-speech="asterisk" data-semantic-prefix="Exponent">
                <use data-c="2217" xlink:href="#relative-error-1pct-MJX-12-TEX-N-2217"/>
              </g>
            </g>
            <g data-mml-node="mo" data-semantic-type="relation" data-semantic-role="equality" data-semantic-id="3" data-semantic-parent="5" data-semantic-operator="relseq,≈" data-semantic-speech="almost equals" transform="translate(1183.3,0)">
              <use data-c="2248" xlink:href="#relative-error-1pct-MJX-12-TEX-N-2248"/>
            </g>
            <g data-mml-node="mn" data-semantic-type="number" data-semantic-role="float" data-semantic-font="normal" data-semantic-annotation="clearspeak:simple" data-semantic-id="4" data-semantic-parent="5" data-semantic-speech="0.244" transform="translate(2239.1,0)">
              <use data-c="30" xlink:href="#relative-error-1pct-MJX-12-TEX-N-30"/>
              <use data-c="2E" xlink:href="#relative-error-1pct-MJX-12-TEX-N-2E" transform="translate(500,0)"/>
              <use data-c="32" xlink:href="#relative-error-1pct-MJX-12-TEX-N-32" transform="translate(778,0)"/>
              <use data-c="34" xlink:href="#relative-error-1pct-MJX-12-TEX-N-34" transform="translate(1278,0)"/>
              <use data-c="34" xlink:href="#relative-error-1pct-MJX-12-TEX-N-34" transform="translate(1778,0)"/>
            </g>
          </g>
        </g>
      </svg>
    </g>
  </g>
</svg>
